<svg xmlns="http://www.w3.org/2000/svg" version="1.1" xmlns:xlink="http://www.w3.org/1999/xlink" xmlns:svgjs="http://svgjs.dev/svgjs" width="100" height="100"><svg xmlns="http://www.w3.org/2000/svg" viewBox="0 0 100 100">
  <!-- Background circle -->
  <circle cx="50" cy="50" r="45" fill="#0070f3"></circle>
  
  <!-- Letters "GS" -->
  <path d="M38 35
           A 15 15 0 0 1 53 20
           L 53 20
           A 15 15 0 0 1 68 35
           L 68 40
           L 58 40
           L 58 35
           A 5 5 0 0 0 53 30
           L 53 30
           A 5 5 0 0 0 48 35
           L 48 40
           A 5 5 0 0 0 53 45
           L 63 45
           A 15 15 0 0 1 78 60
           L 78 65
           A 15 15 0 0 1 63 80
           L 63 80
           A 15 15 0 0 1 48 65
           L 48 60
           L 58 60
           L 58 65
           A 5 5 0 0 0 63 70
           L 63 70
           A 5 5 0 0 0 68 65
           L 68 60
           A 5 5 0 0 0 63 55
           L 53 55
           A 15 15 0 0 1 38 40
           Z" fill="white"></path>
</svg><style>@media (prefers-color-scheme: light) { :root { filter: none; } }
@media (prefers-color-scheme: dark) { :root { filter: none; } }
</style></svg>